<svg xmlns="http://www.w3.org/2000/svg" xmlns:xlink="http://www.w3.org/1999/xlink" version="1.1" x="0px" y="0px" viewBox="0 0 100 125" enable-background="new 0 0 100 100" xml:space="preserve"><path fill-rule="evenodd" clip-rule="evenodd" d="M36.1743164,16.1010742l-0.0566406,2.3032227  c-2.7714844,0.5805664-4.3623047,0.8046875-3.8193359,2.7338867l3.8193359-0.8427734l-0.2060547,63.5527344l2.9023438,2.078125  h22.7880859l2.3974609-2.078125l-0.0380859-63.5341797l3.7451172,0.8242188  c0.5244141-1.9101563-1.0302734-2.1533203-3.7636719-2.7148438v-2.3222656c0-0.6743164-0.7675781-1.2734375-1.9287109-1.7788086  l-0.46875,3.1455078l-0.0175781,0.0566406h-0.0761719c-7.7138672,0.0561523-15.2041016,0.0561523-22.9189453,0h-0.0742188  v-0.0566406l-0.46875-3.0522461C36.9038086,14.902832,36.1918945,15.4643555,36.1743164,16.1010742L36.1743164,16.1010742z   M37.8217773,23.5722656l1.5732422,4.0444336l0.4306641,12.7333984l-1.2548828-0.3745117l-0.8056641-1.0864258  L37.8217773,23.5722656z M62.0883789,23.5722656l-1.5712891,4.0444336l-0.375,12.7333984l1.2734375-0.3745117l0.7119141-1.0864258  L62.0883789,23.5722656z M59.7856445,26.3061523l2.1347656-5.2050781c-3.6318359-1.5732422-5.7666016-2.0224609-9.9042969-1.8168945  c-4.4394531,0,0.4853516,0-3.9511719,0c-4.1386719-0.2055664-6.2734375,0.2436523-9.9248047,1.8168945l1.984375,5.2050781  C43.9067383,24.5087891,55.9838867,24.5087891,59.7856445,26.3061523L59.7856445,26.3061523z M62.0522461,83.3242188V43.9267578  l-23.875,0.0185547l0.0195313,39.565918C45.7797852,83.5112305,54.4672852,83.3242188,62.0522461,83.3242188L62.0522461,83.3242188z  "/><rect x="39.9370117" y="45.1435547" fill-rule="evenodd" clip-rule="evenodd" width="1.0302734" height="36.925293"/><rect x="42.6713867" y="45.1435547" fill-rule="evenodd" clip-rule="evenodd" width="1.0292969" height="36.925293"/><rect x="45.4799805" y="45.1435547" fill-rule="evenodd" clip-rule="evenodd" width="1.0302734" height="36.925293"/><rect x="48.1948242" y="45.1435547" fill-rule="evenodd" clip-rule="evenodd" width="1.0488281" height="36.925293"/><rect x="51.0043945" y="45.1435547" fill-rule="evenodd" clip-rule="evenodd" width="1.0478516" height="36.925293"/><rect x="53.737793" y="45.1435547" fill-rule="evenodd" clip-rule="evenodd" width="1.0488281" height="36.925293"/><rect x="56.5463867" y="45.1435547" fill-rule="evenodd" clip-rule="evenodd" width="1.0488281" height="36.925293"/><rect x="59.2807617" y="45.1435547" fill-rule="evenodd" clip-rule="evenodd" width="1.0292969" height="36.925293"/><path fill-rule="evenodd" clip-rule="evenodd" d="M38.1401367,14.378418l0.4492188,3.0336914c7.6201172,0,15.2412109,0,22.8447266,0  l0.4863281-3.1088867l-2.5283203-0.1870117c-6.4033203-0.0561523-12.3759766-0.0561523-18.7802734,0L38.1401367,14.378418z"/></svg>